<svg width="618" height="729" viewBox="0 0 618 729" fill="none" xmlns="http://www.w3.org/2000/svg">
<mask id="mask0" mask-type="alpha" maskUnits="userSpaceOnUse" x="0" y="0" width="618" height="729">
<rect width="618" height="729" fill="#C4C4C4"/>
</mask>
<g mask="url(#mask0)">
<path d="M181.3 568.3C183.9 568.3 186.5 568 188.4 567.7C198.5 566.2 208.7 568.2 218.8 568.7C223.8 568.9 228.5 568.2 233.5 567.9C237.3 567.7 241 568 244.2 565.3C246 563.8 247.2 561.3 246.5 559C245.5 555.8 241.6 554.6 238.3 553.9C230.2 552.2 222.1 550.6 214 548.9C210.7 548.2 204.4 546.8 203.7 542.8C203.3 540.8 204.5 537.6 204.7 535.5C204.9 532.9 205.1 530.4 205.2 527.8C205.4 523.1 206.9 518.6 201 518.3C194.7 518 188.4 517.6 182.1 517.3C181.5 517.3 180.9 517.2 180.3 517.5C179.4 518 179 519.1 178.8 520.1C177.9 523.6 177.1 527 176.2 530.5C174.9 535.9 173.5 541.3 172.7 546.8C172.1 550.7 172.2 554.6 171.8 558.5C171.6 560.9 170.9 563.3 172.7 565.3C174.7 567.5 178 568.2 181.3 568.3Z" fill="#212145"/>
<path d="M228.3 589.4C228.6 591 229.4 592.3 230.6 592.9C233.1 594.2 237.4 593.9 240.2 594.4C244.7 595.2 249.4 595.7 254 595.3C257.4 595 260.8 594.2 264.2 594.1C274 593.7 283.9 597.4 293.6 594.7C296.9 593.7 302.5 591.6 303.5 587.8C304.8 582.8 300.4 579.7 296.3 578.5C291 577 285.5 576.3 280 576.2C277.8 576.1 275.5 576.2 273.3 575.7C267.8 574.4 265.6 570 266.8 564.8C268.5 558 270 551.1 271.7 544.2C260.4 542.6 249 544.5 237.7 546.4C237 546.5 236.3 546.7 235.8 547.2C235.4 547.6 235.3 548.1 235.2 548.6C233.4 556.1 234.3 563.1 231.8 570.3C230.6 573.8 227.1 583.8 228.3 589.4Z" fill="#212145"/>
<path d="M0.900023 476.9C1.70002 478.4 2.60003 479.8 3.50003 481.2C6.50003 485.5 13.2 489.3 18.7 488.6C24.6 487.8 30.3 485.7 36.3 486C38.5 486.1 40.8 486.6 42.3 488.1C49.1 494.8 32.8 500.7 28.3 502.1C18.1 505.2 7.90004 508.2 -2.29996 511.3C-4.19996 511.9 -6.19998 512.5 -8.19998 512.1C-12.4 511.5 -14.2 508.7 -15.3 505.2C-16.8 500.7 -18.5 496.4 -20.3 492C-23.2 484.9 -25.4 477.5 -27.1 470C-27.6 467.9 -28 465.7 -27.4 463.6C-26.5 460.6 -23.3 458 -20.2 458C-18.8 458 -17.4 458.4 -16.1 458.9C-6.69998 461.9 -3.69998 468.6 0.900023 476.9Z" fill="white" stroke="#212145" stroke-width="2.6" stroke-miterlimit="10"/>
<path d="M3.50008 470C-11.5999 438.8 -22.3999 406.1 -33.9999 373.5C-39.5999 357.9 -45.2999 341.8 -55.5999 328.6C-60.3999 322.5 -64.6999 317.7 -72.4999 316C-79.5999 314.5 -86.9999 315.3 -93.9999 316.9C-97.8999 317.8 -101.4 319.8 -105.2 320.7C-110.4 321.9 -118.5 320.6 -120.5 327.2C-121.4 330.1 -120.9 333.3 -120.2 336.3C-119 341.3 -117.5 346.1 -115.5 350.8C-113 356.8 -109.8 362.6 -107.6 368.8C-106 373.5 -105 378.5 -103.1 383.1C-100.1 390.5 -94.7999 396.9 -88.2999 401.6C-84.3999 404.4 -79.7999 406.7 -77.0999 410.7C-75.0999 413.6 -74.8999 416.6 -73.6999 419.8C-70.5999 428.1 -66.9999 437 -59.3999 441.7C-57.3999 442.9 -55.1999 443.9 -53.6999 445.7C-52.6999 446.9 -52.0999 448.5 -51.5999 450C-49.9999 454.5 -48.1999 459.1 -45.1999 462.9C-42.4999 466.3 -38.9999 468.9 -36.1999 472.3C-33.2999 475.9 -32.5999 480 -30.5999 484C-30.1999 485.2 3.70008 470.5 3.50008 470Z" fill="#212145"/>
<path d="M10.7001 248.1H-138.7L-112.1 169.2C-111.2 166.5 -108.5 164.6 -105.4 164.6H29.2001C33.9001 164.6 37.3001 168.8 35.9001 173L10.7001 248.1Z" fill="#0096D5"/>
<path d="M8.1001 253.3H-139.4V248.1L10.7001 241.2V250.7C10.7001 252.1 9.5001 253.3 8.1001 253.3Z" fill="#0096D5"/>
<path d="M424.3 206.2C424.3 209.7 424.6 211.2 421.5 212.5C418.5 213.8 413.6 213.5 410.3 214.1C403 215.4 395.8 217.5 389.5 221.6C378.8 228.6 365.9 229.9 354.7 237.1C352.8 238.3 351 239.6 348.8 240.2C346.1 241 343.3 240.7 340.5 240.6C332.5 240.3 323.9 242.3 318.3 248C316.4 250 314.8 253 316.1 255.4C316.8 256.6 318.1 257.4 319.4 258C329.2 262.4 339.4 259.5 348.9 255.9C356.8 252.9 366.7 252.2 375.1 251.6C389.2 250.6 403.5 251.4 417.4 248.5C424.9 246.9 432.4 245 439.3 241.6C445.6 238.5 453.3 235.3 456.4 228.4C457 227.1 457.3 225.7 457.7 224.3C460.3 214 462.9 203.7 465.5 193.4C467.5 185.6 467.3 177.3 467 169.2C466.8 162.4 465.6 155.6 463.5 149.2C461.9 144.4 460.4 138.3 457.7 134C454.9 129.7 450.2 126.8 445.1 126.3C434.9 125.3 425.3 131.9 425.9 142.7C426.7 155.9 422.4 168.8 425.3 181.9C425.6 183.5 426.1 185 426.1 186.6C426.1 188.2 425.7 189.7 425.4 191.2C424.4 196.1 424.4 201.2 424.3 206.2Z" fill="white" stroke="#212145" stroke-width="2.6" stroke-miterlimit="10"/>
<path d="M391 441.5C395.1 447.6 398 453.4 396.9 461.6C395.3 473.6 385.5 481.5 382.9 493.2C382.7 494.2 382.5 495.4 382.8 496.5C383.3 498.7 385.5 500.4 387.6 500.9C398.9 503.9 408.8 487.2 415.2 480.8C423.3 472.7 431.3 464.6 439.4 456.5C441.6 454.4 441.3 450.4 438.8 447.9L411.8 420L407.8 415.9C401.2 409 391.4 408.3 386 414.2C381.3 419.3 381.7 428.1 386.4 435C388.1 437.3 389.6 439.4 391 441.5Z" fill="#212145"/>
<path d="M481.085 461.497L487.085 461.497L487.085 329.097L481.085 329.097L481.085 461.497Z" fill="#212145"/>
<path d="M536.6 489.3C536.6 469.8 502 461.6 484.7 461.5C464.1 461.5 432.8 469 432.8 489.3" stroke="#212145" stroke-width="6.8558" stroke-miterlimit="10"/>
<path d="M484.1 494.5V462.1" stroke="#212145" stroke-width="6.8558" stroke-miterlimit="10"/>
<path d="M424.3 494C424.3 498.7 428.1 502.5 432.8 502.5C437.5 502.5 441.3 498.7 441.3 494C441.3 489.3 437.5 485.5 432.8 485.5C428.1 485.5 424.3 489.3 424.3 494Z" fill="#212145"/>
<path d="M475.8 494C475.8 498.7 479.6 502.5 484.3 502.5C489 502.5 492.8 498.7 492.8 494C492.8 489.3 489 485.5 484.3 485.5C479.6 485.5 475.8 489.3 475.8 494Z" fill="#212145"/>
<path d="M527.2 494C527.2 498.7 531 502.5 535.7 502.5C540.4 502.5 544.2 498.7 544.2 494C544.2 489.3 540.4 485.5 535.7 485.5C531 485.5 527.2 489.3 527.2 494Z" fill="#212145"/>
<path d="M489.9 284.7V187.3C489.9 170.4 503.6 156.8 520.4 156.8H554C570.9 156.8 584.5 170.5 584.5 187.3V296.2C584.5 320.2 564.8 339.9 540.8 339.9H490.5H431.3C428.5 339.9 426.2 337.6 426.2 334.8C426.2 332 428.5 329.7 431.3 329.7H445C469.8 329.6 489.9 309.5 489.9 284.7Z" fill="white" stroke="#212145" stroke-width="2.6" stroke-miterlimit="10"/>
<path d="M381.9 472.5C380.6 479.7 378.7 486 372.2 491.1C362.7 498.6 350.1 497.5 340.2 504.1C339.3 504.7 338.4 505.4 337.8 506.4C336.7 508.4 337 511.1 338.2 512.9C344.3 522.9 363 517.8 372 517.7C383.4 517.5 394.8 517.2 406.3 517C409.3 517 411.8 513.9 411.8 510.3V471.5V465.8C411.9 456.3 405.3 448.9 397.3 449.4C390.4 449.8 384.5 456.4 383.1 464.7C382.7 467.4 382.3 470 381.9 472.5Z" fill="#212145"/>
<path d="M445.4 228.4C445.4 228.3 445.5 228.1 445.5 228L445.4 228.4Z" fill="#7A483A"/>
<path d="M468.3 119.3L467.9 121.4L468.3 119.3Z" fill="#7A483A"/>
<path d="M445.8 226.8C445.7 227.2 445.6 227.6 445.5 228L445.8 226.5C445.8 226.6 445.8 226.7 445.8 226.8Z" fill="#7A483A"/>
<path d="M422.9 143.5L426.5 113.6L422.9 143.5Z" fill="#7A483A"/>
<path d="M427.5 113.9C430.2 106 434.7 98.6 442.4 94.7C444.7 93.5 447.2 92.7 449.6 91.9C455.9 89.8 462.2 87.8 468.7 86.8C469.8 86.6 471.3 86.8 471.5 87.8C471.6 88.2 471.4 88.7 471.4 89.1C471 90.8 471.9 92.3 471.7 94C471.4 96.2 470.6 98.4 470 100.5C468.9 104.9 467.7 109.5 468.2 114.1C468.9 121 465.3 126.8 465.3 133.4C465.1 134.5 461.9 150 461.8 150L422.9 143.4C424.1 133.5 424.4 123.4 427.5 113.9Z" fill="#212145"/>
<path d="M330.5 306.6C330.1 302.8 330.5 298.6 332 293.9C334.8 285.2 343.2 279.4 351.9 276.9C360.6 274.4 369.9 274.6 379 274.3C397.2 273.6 415.5 267.9 433.5 268.7C438.2 268.9 442.8 270.2 447.5 270C459.9 269.5 470.1 259.1 482.4 258.3C486.4 258 490.5 258.8 494.4 260C500.7 261.9 506.9 265 511.3 270C519.8 279.9 519 294.9 514.2 307C512.2 311.9 509.7 316.6 506 320.4C500.9 325.7 494.1 328.8 487.1 331.1C479.1 333.7 472.5 333.5 464.2 333.5C445.7 333.3 427.3 333.2 408.8 333C395.2 332.9 381.7 334.6 368.1 333.5C351.4 332 332.5 323.5 330.5 306.6Z" fill="#212145"/>
<path d="M344.2 281.2C350.9 276.1 358.9 273.6 368.3 277C373 278.7 377.1 281.8 380.4 285.5C397 304.3 400.3 335.4 405.1 359C408 372.7 410.5 386.6 412.6 400.4C413.2 404.4 420.2 439.8 417.9 440.9C415.6 442 377.5 445.6 377.8 446.4C370.5 427.3 361.8 408.3 355.9 388.8C352.5 377.8 347.1 367.6 342.5 357C337.3 344.7 332.7 330.9 330.2 317.7C327.4 303 332.2 290.4 344.2 281.2Z" fill="#212145"/>
<path d="M446.5 308.9C446 309.5 445.6 310.1 445.2 310.7C433.5 329.2 464.8 333.7 476.1 333.8L515.8 333.9C538.8 333.9 556.6 322.4 557.3 299.7V231.1C540.9 231.1 524.6 231.2 508.2 231.2C498.4 231.2 487.5 229.9 477.8 231.3C470.9 232.3 471.7 230.7 468.9 237.6C465.3 246.2 467.2 259.9 465.6 269.2C463.6 281.1 459.8 293 452.1 302.3C450.2 304.6 448.2 306.6 446.5 308.9Z" fill="#0096D5"/>
<path d="M410.9 366.1C408.4 365.1 405.1 360.7 402.3 361.4C399.7 362 397.4 366.8 396.3 368.9C393.3 374.7 391.6 381.2 387.3 386.2C386.9 386.7 386.4 387.1 385.9 387.4C384.6 387.9 383.3 387 382.3 386.1C374 378.7 373.4 363.8 372.8 353.4C371.9 336.2 380.8 318.8 395.3 309.6C400.1 306.5 405.4 304.3 410.7 302C427.7 294.5 444 285.6 459.5 275.4C466.2 271 472.6 268 480 265.1C492.7 260.2 506.4 258.7 519.8 260.8C536.1 263.4 550.9 266.4 556.1 289.6C557.9 297.4 557.5 305.8 554.6 313.4C551.9 320.4 547.2 326.2 540.2 329.2C539.3 329.6 538.3 329.9 537.4 330.3C531.4 332.3 525.5 334.3 519.5 336.3C514.4 338 509.3 339.8 504.2 341.5C498.5 343.4 492.8 345.4 487 347.3C481.2 349.3 475.4 351.2 469.6 353.2C464.2 355 458.9 356.8 453.5 358.7C449.1 360.2 444.7 361.7 440.4 363.2C437.5 364.2 434.6 365.2 431.8 366.1C430.9 366.4 430.1 366.7 429.2 367C429 367.1 428.7 367.2 428.5 367.3C427.9 367.5 427.3 367.7 426.7 367.8C421.3 369 415.8 368 410.9 366.1Z" fill="#0096D5"/>
<path d="M448.3 102.2C449.4 99.5 450.8 97.1 452.9 95.2C463.3 85.5 479.8 85.9 493 85.5C501.6 85.2 510.3 85.3 518.9 86.7C528 88.2 534.9 91.7 543 95.7C547.6 98 552.2 100.3 555.9 103.8C564.4 111.9 566.1 124.7 566.4 136.5C566.7 148.2 556.4 268 557.1 268C542 267.3 526.9 267.2 511.9 266.4C504.2 266 496.5 265.6 488.8 264.9C484.6 264.5 480.4 265 476.2 264.5C471.5 264 472 262 468.8 260C467.2 259 465.8 259.8 464.7 258.4C463.8 257.3 464.3 252.9 464.2 251.4C463.9 246.4 463.7 241.4 463.2 236.4C462.6 230.8 461.2 225.4 460.7 219.6C459.6 205.4 459.1 191.1 456.1 177.1C453.4 164.6 448.7 152.6 446.2 140C444.5 131.4 443.8 122.3 445.6 113.7C446 110 446.8 105.9 448.3 102.2Z" fill="#212145"/>
<path d="M503.4 66.4C505.3 64 504.8 64.4 505.6 61.3L513 29.6L468.4 19.2L463 51.3C461.1 59.4 464 67.6 469.9 72.7L473.2 95C474.4 104.3 483.2 110.8 492.5 109.1C501.8 107.4 507.8 98.3 505.7 89.1L503.4 66.4Z" fill="white" stroke="#212145" stroke-width="2.6" stroke-miterlimit="10"/>
<path d="M472.5 78.3C477.8 78.1 483.4 75.7 484.9 70.3C484.8 70.6 483.8 70.9 483.5 71C480.9 72 477.9 71.9 475.2 71.7C473.4 71.5 471.5 71.3 470 70.3C469.9 70.2 469.7 70.1 469.5 70.1C469.3 70.1 469.2 70.3 469.1 70.4C468.6 71.2 468.9 72.5 469.4 73.2C470 73.8 470.5 74.2 470.7 75C470.9 75.8 470.9 76.7 471 77.6C471.1 77.9 471.8 78.1 472.5 78.3Z" fill="#212145"/>
<path d="M466.1 26C469.2 27 472.6 27.8 475.7 28.6C480.3 29.8 484.9 30.7 489.5 32.1C501.6 35.7 498.9 47.7 498.9 57.8C498.9 60.6 499.1 63.8 501.4 65.4C507.8 69.8 509.3 56.1 510.9 53C511.8 51.3 513 49.8 513.7 48.1C515.1 44.5 513.9 40.3 514.4 36.5C514.6 34.7 515.2 33 515.4 31.3C516 23.9 509.2 17.1 503.2 14.1C498.3 11.7 493.1 8.40001 490.1 3.80001C489.6 3.00001 489.2 2.20001 488.5 1.70001C488 1.30001 487.3 1.00001 486.7 0.700006C483.1 -0.499994 478.9 0.200006 475.8 2.50001C474.9 3.20001 474 4.10001 472.9 4.60001C471.2 5.30001 469.3 4.80001 467.4 4.70001C464.7 4.50001 461.9 5.20001 459.9 7.00001C457.9 8.80001 457 11.9 458 14.4C458.6 15.9 459.9 17 460.6 18.5C462.2 21.9 461.4 24.5 465.2 25.9C465.6 25.8 465.8 25.9 466.1 26Z" fill="#212145"/>
<path d="M494.2 53.1C493.6 55.6 495.2 58.2 497.7 58.8C500.2 59.4 502.8 57.8 503.4 55.3C504 52.8 502.4 50.2 499.9 49.6C497.3 49 494.8 50.5 494.2 53.1Z" fill="white"/>
<path d="M388.5 319.7C384.4 326.3 381.8 333.8 379.9 341.3C376.9 353.2 374 365.4 375.8 377.5C376.3 381 377.3 384.5 377.5 388.1C377.9 394.5 375.9 400.8 375.9 407.2C375.9 411.8 377 416.2 377.9 420.7C380.2 431.9 380.9 442.8 380.5 454.1C380.4 457.8 380.2 461.4 380 465.1C379.9 468 380.3 472.2 378.9 474.7C383.2 475.4 387.6 475.9 391.9 476.5C400 477.6 408 478.7 416.2 479.3C418.7 479.5 424.2 480.8 426.3 479.2C428.1 477.8 428.4 473.5 428.9 471.5C432.6 456.6 435.8 440.9 432.8 425.6C432.3 422.8 431.5 420.1 431.2 417.3C430.8 413.8 431.1 410.3 431.6 406.8C433.6 392.3 437.1 378.2 439 363.7C441 348.5 442.3 333.1 443.5 317.8C445.6 290.7 408.4 299.5 395.9 310.8C392.9 313.5 390.5 316.5 388.5 319.7Z" fill="#0096D5"/>
<path d="M514.5 117.1C509.7 121.7 502.2 125.2 496.6 128.9C491.7 124.5 485.9 121.3 479.7 119.4C476.2 118.4 472.6 117.8 469.2 116.5C453.7 110.8 441.8 99.2 425.8 94C417.8 91.4 408.9 89.5 403.4 83.1C396.7 75.3 395.4 63.6 390.4 54.7C388.4 51.2 385.4 48.2 381.3 52C378.2 54.9 379.3 60.7 379.9 64.3C380.9 69.9 382.1 75.5 383.2 81.1C384.9 89.2 385.8 92.1 393.2 96.1C400.5 100.1 407.8 105 413.5 111.1C417.2 115 420.2 119.6 423.8 123.6C436.3 137.9 454.5 146 468.3 159C475 165.3 482.1 173.8 492.2 171.1C495.5 170.2 534 160 532.8 157.8C528.1 149.5 524.7 141.7 521.3 132.9C519.2 127.6 516.4 122.5 514.5 117.1Z" fill="white" stroke="#212145" stroke-width="2.6" stroke-miterlimit="10"/>
<path d="M556.7 140.6C551.3 149.3 542.7 156 532.9 159Z" fill="black"/>
<path d="M556.7 140.6C551.3 149.3 542.7 156 532.9 159" stroke="white" stroke-width="3.4279" stroke-miterlimit="10"/>
<path d="M410.6 221.7H242.6C239.7 221.7 237.2 219.7 236.6 216.8L215.7 120.2C214.9 116.4 217.8 112.7 221.7 112.7H389.7C392.6 112.7 395.1 114.7 395.7 117.6L416.6 214.2C417.5 218.1 414.6 221.7 410.6 221.7Z" fill="#212145"/>
<path d="M318.9 249.2L322.2 209.4C322.5 205.6 319.5 202.4 315.8 202.4C312.4 202.4 309.7 205 309.4 208.3L306 249.2H281.8V253.3H344V249.2H318.9Z" fill="#212145"/>
<path d="M290.2 134.8C289.7 130.7 283.3 130.7 283.7 134.8C284.2 139.2 284.7 143.7 285.2 148.1C285.7 152.2 292.1 152.2 291.7 148.1C291.2 143.7 290.7 139.3 290.2 134.8Z" fill="white"/>
<path d="M303.1 134.8C302.6 130.7 296.2 130.7 296.6 134.8C297.1 139.2 297.6 143.7 298.1 148.1C298.6 152.2 305 152.2 304.6 148.1C304.2 143.7 303.6 139.3 303.1 134.8Z" fill="white"/>
<path d="M316.1 134.8C315.6 130.7 309.2 130.7 309.6 134.8C310.1 139.2 310.6 143.7 311.1 148.1C311.6 152.2 318 152.2 317.6 148.1C317.1 143.7 316.6 139.3 316.1 134.8Z" fill="white"/>
<path d="M329 134.8C328.5 130.7 322.1 130.7 322.5 134.8C323 139.2 323.5 143.7 324 148.1C324.5 152.2 330.9 152.2 330.5 148.1C330 143.7 329.5 139.3 329 134.8Z" fill="white"/>
<path d="M342 134.8C341.5 130.7 335.1 130.7 335.5 134.8C336 139.2 336.5 143.7 337 148.1C337.5 152.2 343.9 152.2 343.5 148.1C343 143.7 342.5 139.3 342 134.8Z" fill="white"/>
<path d="M450.2 222.6C450.6 225.6 450.7 229 448.4 231C447.1 232.1 445.4 232.5 443.7 232.9" fill="#212145"/>
<path d="M483 159.4C483.4 161.6 485.2 163.4 487.4 163.9C489.6 164.4 491.9 163.4 493.2 161.6" fill="#212145"/>
<path d="M653 253H-392.8V264.6H653V253Z" fill="#212145"/>
<path d="M642.1 527.5H634.1L569.1 255.2H577L642.1 527.5Z" fill="#212145"/>
<path d="M570.1 527.5H562.1L497 255.2H505L570.1 527.5Z" fill="#212145"/>
<path d="M245.8 368.3C242.3 351.7 212.4 353 198.9 350.7C180.6 347.5 162.3 344.5 144 341.2C139.9 340.5 135.3 339.9 131.5 342.2C129.4 343.5 128 345.5 126.6 347.5C121.2 355.3 116.5 363.9 115.1 373C113.7 382.1 115.9 391.8 122.6 397.5C128.6 402.7 137.3 404.1 145.6 405.2C150.6 405.8 155.4 407 160.4 407.8C163.3 408.3 166.1 407.9 168.5 409.6C175.7 414.4 173.7 426 171.8 433.4C170 440.5 167.7 447.8 169.5 454.6C170 456.4 170.8 458.2 171.1 460C171.5 462.3 171 464.8 170.6 467.2C168.4 479.9 163.9 493.5 168.8 505.5C169.4 506.9 170.1 508.3 170.4 509.8C170.6 511.1 170.5 512.4 170.3 513.7C169.3 522.3 168.3 530.9 167.4 539.5C167.4 539.5 196.8 540.9 199.1 540.9C202.5 541 210 542.2 213 540.4C217.8 537.5 218.8 523.3 219.6 518C220.8 510.6 221.3 503 222.7 495.6C225.3 482.3 230.8 469.7 233.2 456.3C234.4 449.6 234 442.6 235.3 436C236.4 430.5 237.8 424.9 238.8 419.3C241.1 405.7 243.3 392.1 245.6 378.6C246.1 375.5 246.6 372.4 246.2 369.4C245.9 368.9 245.8 368.6 245.8 368.3Z" fill="#212145"/>
<path d="M240 444.8C239.1 447 238.3 449.3 237.4 451.5C235.2 457.2 233 463 232.7 469.1C232.4 475.2 234 481.2 234.2 487.4C234.4 497.8 229.1 506.8 229 516.9C229 520.7 230 524.3 230.3 528.1C230.6 531.9 230.1 535.7 229.5 539.5C228.7 545.6 227.8 551.7 227 557.8C226.3 562.8 224.8 566.2 230.5 566.7C245.7 568.2 260.2 565.8 275.3 564.9C275.9 564.9 276.6 564.8 277.1 564.4C277.4 564.1 277.6 563.6 277.7 563.1C283.2 541.9 288.3 521.5 291 499.9C291.2 498 291.5 496 292.3 494.2C293.3 491.9 295.2 490.2 296.8 488.3C300.7 483.5 300.8 478.5 302.4 472.9C304 467.5 305.9 462.3 307.1 456.7C310 443.4 312.8 430.1 315.6 416.8C317.9 405.8 320.7 395.9 314.8 385.4C312.9 382 309.9 379.4 306.9 376.9C280.5 355.5 247 343 213.1 341.9C200.4 341.5 184.4 340.7 179.7 328.9C177.9 324.5 178.3 319.5 177.6 314.7C175.5 300.9 154 297.6 142.9 301.3C127.8 306.2 123.1 324.8 121.5 340.6C120.1 353.5 119.2 366.8 122.9 379.2C128.4 397.7 143.9 412.1 161.5 419.9C175.4 426 190.6 428.2 205.6 429.1C217.1 429.8 228.5 427.6 239.8 426.3C247.9 425.4 246.6 427.7 244 434.4C242.8 437.8 241.4 441.3 240 444.8Z" fill="#0096D5"/>
<path d="M138.8 101.8C139.2 103.8 139.6 105.8 140 107.8C140.7 111.8 141.1 116.3 138.4 119.4C136.8 121.1 134.5 122 132.9 123.7C130.6 126.2 130.4 130.1 130.9 133.5C131.5 137.6 131.6 141.2 131.8 145.1C132 149.4 133.9 153.3 133.7 157.7C133.4 166 127.3 171.5 119.3 170.9C114.6 170.6 109.2 169.9 106.4 166.1C105 164.2 104.5 161.9 103.9 159.6C100 142.6 96.0999 124.8 100.5 107.9C102.1 101.7 104.2 94.3 107.9 88.9C110.6 85 113.6 80 117.3 77C120.8 74.3 126 73.3 129.5 76C131.9 77.8 133 80.7 133.9 83.5C135.9 89.6 137.6 95.6 138.8 101.8Z" fill="white" stroke="#212145" stroke-width="2.6" stroke-miterlimit="10"/>
<path d="M182.1 172.3C183.1 166.1 186.7 160.1 192.2 156.9C198.2 153.4 204.3 150 210.9 147.5C211.8 147.2 212.6 146.9 213.5 146.6C230.6 140.5 248.6 136.7 265.4 129.9C284 122.3 301.9 113.2 320.2 104.8C332.5 99.1 344.3 93.1 355.2 84.9C364.4 78 361.5 64.1 365.9 54.6C367.8 50.5 371.4 46.3 374.7 51.8C377.8 57 376.9 63.8 377.6 69.5C378.3 75.2 379.1 81 376.6 86.4C374.8 90.2 371.6 93.1 368.5 95.9C365.5 98.6 362.5 101.3 359.5 104C356 107.1 352.6 110.5 348.9 113.2C337.4 121.9 326.3 131.2 315.6 140.9C305.1 150.5 295.5 160.4 283.4 168.2C271.7 175.8 258.3 182.2 245 185.8C244.8 185.9 244.6 185.9 244.3 186C230.9 189.6 218.7 195.1 204.4 193.6C193.1 192.5 179.9 185.2 182.1 172.3Z" fill="white" stroke="#212145" stroke-width="2.6" stroke-miterlimit="10"/>
<path d="M173.9 310.2C173.9 310.6 137.3 312.5 133.9 312.7C127.3 313.1 118.8 315.1 112.3 314C108.1 313.3 106.4 308.9 101.5 309.8C98.5001 310.4 95.1001 311.4 92.9001 309.3C91.5001 308 91.3001 305.8 91.2001 303.9C90.4001 290.1 89.7001 276.3 88.9001 262.5C88.3001 251.1 74.2001 248 66.0001 242.8C60.4001 239.3 54.8 235.7 49.3 232.2C59.8 209.6 74.3001 190 91.5001 172.2C109.5 153.5 122.3 151.8 148.6 151.5C169.9 151.3 191.1 148.5 211.7 143.1C216.6 160.5 221.8 178.2 226.6 195.5C214.5 202.1 199.9 206.8 186.7 211.1C182.8 212.6 178.6 214.3 176.5 217.9C174.8 220.7 174.8 224.1 174.7 227.4C174.4 255.1 174.1 282.7 173.9 310.2Z" fill="#212145"/>
<path d="M507.2 570.7C507.2 570.1 507.1 569.5 507 568.8C505.9 562.1 500.6 556.9 497 551.2C493.5 545.6 491.4 539 491.2 532.4C490.7 520 491 504 485.7 492.5C480.9 482.1 469.4 476.5 463.5 466.7C460.3 461.3 459.2 454.9 457.8 448.8C455.5 439.1 451.8 429.4 445.3 421.8C440.2 415.9 433.7 411.5 427.2 407.2C420.9 403 414.5 398.7 407.4 396.2C398 392.9 387.6 391.8 383.3 401.5C379.8 409.3 381.6 420.4 385.3 427.7C388.5 434.1 393.6 439.3 398.4 444.6C406.7 453.8 414.3 463.7 421.2 474C423.1 476.9 425 480 425.4 483.4C425.8 486.7 424.8 490.1 424.4 493.4C422.3 510.3 429.2 524 442.3 534.3C452.6 542.4 459.1 547 461.7 561.1C463.3 569.8 464 579.1 468.9 586.5C470.9 589.5 473.5 592.1 475.8 594.9C484.5 605.1 489.9 618.1 491.1 631.5C491.7 638.2 493.1 653.3 503.9 650.2C517.1 646.5 515.5 608.1 511.6 599C510 595.1 507.5 591.6 506.7 587.4C505.4 582 507.6 576.3 507.2 570.7Z" fill="#212145"/>
<path d="M560.8 593.1C563.6 591.1 566.1 588.8 567.6 585.7C571.6 577.3 565.4 571.5 564.9 563.6C564.5 556.4 570.7 551.9 574.6 546.9C579.5 540.6 580.7 531.6 577.4 524.3C576 521.1 573.7 517.9 574.2 514.4C574.6 511.9 576.3 509.8 577.7 507.6C581.5 501.3 581.7 493 578.2 486.6C576.2 483 573.2 479.8 572.3 475.7C571.7 473 572.2 470.2 572.8 467.4C574.4 458.6 576 449.6 575.4 440.6C575.1 436.7 574.4 432.6 572.2 429.4C570.2 426.5 566.7 424.2 563 425.1C559.2 426.1 558.7 429.2 557.3 432.2C553.4 441.1 552.4 449.1 550.6 458.7C550.3 460.4 549.9 462.1 548.9 463.5C547.8 465 546.2 466 544.6 467C534.5 473.6 526.2 484.4 526.3 496.4C526.3 503.5 529.2 510.3 529.3 517.3C529.3 519.1 529.1 521 528 522.5C527 523.8 525.4 524.5 523.9 525.3C519.5 527.5 515.3 530.7 513.3 535.2C510.9 540.2 511.5 546.2 513.2 551.5C514.9 556.8 517.6 561.8 519.3 567.1C519.7 568.4 520.1 569.8 520 571.2C519.7 574.5 517 576.1 515.2 578.5C513.3 581.1 513.1 582.8 512.1 585.7C509.5 593.5 506.7 599.8 508 608.3C508.5 611.7 509.5 614.9 509.9 618.3C510.6 625.1 508.8 631.8 507.8 638.5C507.1 643 505.4 653.4 510 656.5C513.9 659.2 519.5 654.8 522.8 652.9C533.2 646.9 540.5 642 542.2 629.6C543.4 620.7 542.2 610.5 548.1 603.1C551.4 598.8 556.5 596.2 560.8 593.1Z" fill="#0096D5"/>
<path d="M492.3 598.5C489.8 591.9 486.3 585.6 482.1 579.9C479 575.8 475.5 571.9 472.7 567.6C468.3 560.6 466 552.4 461.7 545.4C455.2 534.5 442.1 528.3 430.1 534.5C425.9 536.7 422.3 539.9 418.8 543.1C414.9 546.7 411 550.3 407.8 554.5C401.3 562.9 397.6 573.1 393.9 583.1C389.6 594.9 385.3 606.7 381 618.5C379 624.1 374.2 636.9 378.9 642.5C383.4 647.9 393.4 640.1 395.5 635.7C396.9 632.8 398.9 630.2 401.5 628.2C404.7 625.7 408.9 624 410.9 620.4C413 616.7 412.6 611.2 416.4 609.2C417.5 608.6 418.8 608.5 419.9 608.1C423.2 607 425.2 603.8 427 600.9C431 594.1 434.1 586.5 438.4 580C441.1 580.8 443.6 589.1 445.4 591.7C448.1 595.5 451.5 598.9 455.4 601.6C461.3 605.7 468.5 608.5 472.4 614.5C474.6 617.8 475.4 621.8 476.6 625.6C478.2 631.1 483.4 646.8 491.8 644.1C497.6 642.3 497.3 632.5 497.4 627.9C497.7 617.9 495.9 607.9 492.3 598.5Z" fill="#0096D5"/>
<path d="M448 631.7H570.3V647H560.5L552.5 692.2C548.8 713.2 530.5 728.6 509.1 728.6C487.7 728.6 469.4 713.3 465.7 692.2L457.7 647H448V631.7Z" fill="#212145"/>
<path d="M563.9 648.3H454.3" stroke="white" stroke-width="3.4279" stroke-miterlimit="10"/>
<path d="M136.3 344C146.2 345.2 156 346.4 165.9 347.6C183.6 349.7 202.8 352.6 215.1 365.6C222.7 373.7 226.5 384.8 227.7 395.9C228.9 407 227.6 418.2 226.4 429.2" stroke="white" stroke-width="6.8558" stroke-miterlimit="10"/>
<path d="M116 424.8H110V557.2H116V424.8Z" fill="#212145"/>
<path d="M60.5002 584.9C60.5002 565.4 95.1003 557.2 112.4 557.1C133 557.1 164.3 564.6 164.3 584.9" stroke="#212145" stroke-width="6.8558" stroke-miterlimit="10"/>
<path d="M113 590.1V557.7" stroke="#212145" stroke-width="6.8558" stroke-miterlimit="10"/>
<path d="M172.8 589.6C172.8 594.3 169 598.1 164.3 598.1C159.6 598.1 155.8 594.3 155.8 589.6C155.8 584.9 159.6 581.1 164.3 581.1C169 581.1 172.8 584.9 172.8 589.6Z" fill="#212145"/>
<path d="M121.3 589.6C121.3 594.3 117.5 598.1 112.8 598.1C108.1 598.1 104.3 594.3 104.3 589.6C104.3 584.9 108.1 581.1 112.8 581.1C117.5 581.1 121.3 584.9 121.3 589.6Z" fill="#212145"/>
<path d="M69.9001 589.6C69.9001 594.3 66.1001 598.1 61.4001 598.1C56.7001 598.1 52.9001 594.3 52.9001 589.6C52.9001 584.9 56.7001 581.1 61.4001 581.1C66.1001 581.1 69.9001 584.9 69.9001 589.6Z" fill="#212145"/>
<path d="M153.7 374.9V261.2C153.7 241.5 135.7 225.6 113.4 225.6H69.0002C46.8002 225.6 28.7002 241.5 28.7002 261.2V388.3C28.7002 416.4 54.7002 439.3 86.4002 439.3H153H231.2C234.9 439.3 238 436.6 238 433.3C238 430 235 427.3 231.2 427.3H213C180.3 427.3 153.7 403.9 153.7 374.9Z" fill="white" stroke="#212145" stroke-width="2.6" stroke-miterlimit="10"/>
<path d="M76.9001 69.9C70.9001 70.2 64.8001 70.5 59.3001 72.5C48.3001 76.4 43.3001 84.6 37.7001 93.8C32.1001 103 22.6001 108.6 15.5001 116.6C2.40011 131.3 0.700113 155 11.5001 171.5C15.1001 176.9 19.8001 181.5 25.0001 185.5C53.8001 207.3 100.9 191.7 117.6 161.1C126.5 144.9 123.1 125.1 119.5 107C117.5 97.1 118.7 89.2 129 84.1C131.7 82.8 134.6 82 137.1 80.3C143.1 76.3 145.3 67.7 142.5 61C139.8 54.3 132.9 49.8 125.7 49C122.6 48.7 119.4 49 116.5 50.2C109.7 53.1 105.8 60.4 99.7001 64.6C93.1001 69.1 85.0001 69.5 76.9001 69.9Z" fill="white" stroke="#212145" stroke-width="2.6" stroke-miterlimit="10"/>
<path d="M266.9 163.4C266.6 163.6 266.7 164.1 266.9 164.4C268.1 166.4 270.6 167.4 273 167.2C275.3 167 277.5 165.8 279.3 164.3" fill="#212145"/>
<path d="M499.2 52.1C500 52 500.8 52.4 501.2 53C501.6 53.7 501.6 54.6 501.1 55.2C500.7 55.7 500.1 56 499.5 56.2C499.4 56.2 499.3 56.2 499.4 56.2" fill="#212145"/>
<path d="M466.7 57.1C466.5 57.7 466.8 58.3 467.2 58.9C467.8 59.8 468.6 60.5 469.6 61C470.8 61.5 472.1 61.5 473.3 61C474.5 60.5 475.4 59.5 476 58.4C475.9 58.4 475.9 58.4 475.8 58.4" fill="#212145"/>
</g>
</svg>
