<svg width="1084" height="725" viewBox="0 0 1084 725" fill="none" xmlns="http://www.w3.org/2000/svg">
<mask id="mask0" mask-type="alpha" maskUnits="userSpaceOnUse" x="0" y="0" width="1084" height="725">
<rect width="1084" height="725" fill="#C4C4C4"/>
</mask>
<g mask="url(#mask0)">
<path d="M532.7 568.3C530.1 568.3 527.5 568 525.6 567.7C515.5 566.2 505.3 568.2 495.2 568.7C490.2 568.9 485.5 568.2 480.5 567.9C476.7 567.7 473 568 469.8 565.3C468 563.8 466.8 561.3 467.5 559C468.5 555.8 472.4 554.6 475.7 553.9C483.8 552.2 491.9 550.6 500 548.9C503.3 548.2 509.6 546.8 510.3 542.8C510.7 540.8 509.5 537.6 509.3 535.5C509.1 532.9 508.9 530.4 508.8 527.8C508.6 523.1 507.1 518.6 513 518.3C519.3 518 525.6 517.6 531.9 517.3C532.5 517.3 533.1 517.2 533.7 517.5C534.6 518 535 519.1 535.2 520.1C536.1 523.6 536.9 527 537.8 530.5C539.1 535.9 540.5 541.3 541.3 546.8C541.9 550.7 541.8 554.6 542.2 558.5C542.4 560.9 543.1 563.3 541.3 565.3C539.3 567.5 536 568.2 532.7 568.3Z" fill="#212145"/>
<path d="M485.7 589.4C485.4 591 484.6 592.3 483.4 592.9C480.9 594.2 476.6 593.9 473.8 594.4C469.3 595.2 464.6 595.7 460 595.3C456.6 595 453.2 594.2 449.8 594.1C440 593.7 430.1 597.4 420.4 594.7C417.1 593.7 411.5 591.6 410.5 587.8C409.2 582.8 413.6 579.7 417.7 578.5C423 577 428.5 576.3 434 576.2C436.2 576.1 438.5 576.2 440.7 575.7C446.2 574.4 448.4 570 447.2 564.8C445.5 558 444 551.1 442.3 544.2C453.6 542.6 465 544.5 476.3 546.4C477 546.5 477.7 546.7 478.2 547.2C478.6 547.6 478.7 548.1 478.8 548.6C480.6 556.1 479.7 563.1 482.2 570.3C483.4 573.8 486.9 583.8 485.7 589.4Z" fill="#212145"/>
<path d="M799.1 161C796.9 160.2 794.6 159.9 792.4 159.4C788.1 158.4 785.6 156.4 782.6 153.4C780.7 151.5 778.7 149.6 776.2 148.5C768.3 145.1 764.3 152 767.2 158.8C769.5 164.1 773.1 169.6 778.4 172.3C784.2 175.2 790.2 175.4 795.5 179.6C796.8 180.7 810.7 192.4 810.2 193.1C812.8 189.9 818.5 182.8 818.1 178.4C814.2 177.3 811.6 174.5 809.3 171.2C807.1 168 805.1 164.4 801.8 162.4C800.9 161.8 800 161.3 799.1 161Z" fill="white" stroke="#212145" stroke-width="2.6" stroke-miterlimit="10"/>
<path d="M916.762 471.397L922.762 471.397L922.762 338.997L916.762 338.997L916.762 471.397Z" fill="#212145"/>
<path d="M972.3 499.2C972.3 479.7 937.7 471.5 920.4 471.4C899.8 471.4 868.5 478.9 868.5 499.2" stroke="#212145" stroke-width="6.8558" stroke-miterlimit="10"/>
<path d="M919.8 504.4V472" stroke="#212145" stroke-width="6.8558" stroke-miterlimit="10"/>
<path d="M860 503.9C860 508.6 863.8 512.4 868.5 512.4C873.2 512.4 877 508.6 877 503.9C877 499.2 873.2 495.4 868.5 495.4C863.8 495.4 860 499.2 860 503.9Z" fill="#212145"/>
<path d="M911.5 503.9C911.5 508.6 915.3 512.4 920 512.4C924.7 512.4 928.5 508.6 928.5 503.9C928.5 499.2 924.7 495.4 920 495.4C915.3 495.4 911.5 499.2 911.5 503.9Z" fill="#212145"/>
<path d="M962.9 503.9C962.9 508.6 966.7 512.4 971.4 512.4C976.1 512.4 979.9 508.6 979.9 503.9C979.9 499.2 976.1 495.4 971.4 495.4C966.7 495.4 962.9 499.2 962.9 503.9Z" fill="#212145"/>
<path d="M925.6 294.6V197.2C925.6 180.3 939.3 166.7 956.1 166.7H989.7C1006.6 166.7 1020.2 180.4 1020.2 197.2V306.1C1020.2 330.1 1000.5 349.8 976.5 349.8H926.2H867C864.2 349.8 861.9 347.5 861.9 344.7C861.9 341.9 864.2 339.6 867 339.6H880.7C905.5 339.5 925.6 319.4 925.6 294.6Z" fill="white" stroke="#212145" stroke-width="2.6" stroke-miterlimit="10"/>
<path d="M713.1 476.9C712.3 478.4 711.4 479.8 710.5 481.2C707.5 485.5 700.8 489.3 695.3 488.6C689.4 487.8 683.7 485.7 677.7 486C675.5 486.1 673.2 486.6 671.7 488.1C664.9 494.8 681.2 500.7 685.7 502.1C695.9 505.2 706.1 508.2 716.3 511.3C718.2 511.9 720.2 512.5 722.2 512.1C726.4 511.5 728.2 508.7 729.3 505.2C730.8 500.7 732.5 496.4 734.3 492C737.2 484.9 739.4 477.5 741.1 470C741.6 467.9 742 465.7 741.4 463.6C740.5 460.6 737.3 458 734.2 458C732.8 458 731.4 458.4 730.1 458.9C720.7 461.9 717.7 468.6 713.1 476.9Z" fill="white" stroke="#212145" stroke-width="2.6" stroke-miterlimit="10"/>
<path d="M771.2 320.2C771 313.4 771.9 306.7 774.2 300.3C777.9 290.4 785.6 281.7 795.6 278.2C801.3 276.2 807.4 276 813.4 275.8C839.3 274.9 865.2 274 891.1 273.1C913.6 272.3 939.7 290.6 939 315.3C938.6 330.6 928.1 346.5 911.7 347C911.3 347 911 347 910.6 347C886 347.1 861.4 347.3 836.8 347.4C819.5 347.5 797 354.7 781.3 345.1C779.1 343.8 777.1 342.2 775.6 340.1C773.9 337.6 773.1 334.7 772.6 331.8C771.8 327.9 771.3 324.1 771.2 320.2Z" fill="#212145"/>
<path d="M872.3 311.8C848.5 324.7 892.4 346.9 915.2 347L954.9 347.1C977.9 347.1 995.7 335.6 996.4 312.9V244.3L908.4 244.5C908.4 244.5 898.1 297.7 872.3 311.8Z" fill="#212145"/>
<path d="M786.3 322.4C804.8 310.1 879.3 292 889.4 288C909.5 280.1 931.7 276.8 953.2 279.6C971.4 282 990.5 285.1 995.1 305.6C999.2 324 987.5 342.2 969.1 346.3C968.7 346.4 968.3 346.4 967.9 346.5L796.7 380.3C796.3 380.4 796 380.5 795.6 380.6C794.7 380.8 793.8 381 792.8 381.1C779.4 382.6 768.5 374.8 765.6 361.3C762.3 346.6 770.8 332.8 786.3 322.4Z" fill="#212145"/>
<path d="M809.4 485C809.3 490.1 808.6 494.6 804 499C797.3 505.4 786.9 506.3 779.6 512.1C778.9 512.6 778.3 513.2 778 514C777.3 515.5 778 517.3 779.2 518.4C785.5 524.5 800.1 518.5 807.5 517.2C816.8 515.5 826.1 513.9 835.4 512.2C837.9 511.8 839.5 509.4 839 506.9L833.6 480.4L832.8 476.5C831.5 470 825.2 465.8 818.7 467.2C813.1 468.4 809.2 473.7 809.2 479.5C809.4 481.4 809.4 483.2 809.4 485Z" fill="white" stroke="#212145" stroke-width="2.6" stroke-miterlimit="10"/>
<path d="M919.5 100.8L915.8 100.5C909.3 100.1 902.7 100.7 896.4 102.6C893.8 103.4 891.2 104.2 888.7 105.1C878.3 108.5 872.4 114.1 867.6 124.1C863.1 133.6 861.6 144.5 863.7 154.8C864.1 156.8 864.6 158.7 864.4 160.7C864.2 162.2 863.7 163.6 863.2 165C858.7 177.3 857.6 190.5 856.5 203.6C856.7 201.8 845.7 194.5 843.7 192.6C839.6 188.8 835.4 185 831.3 181.1C825.5 175.7 819.7 170.4 813.9 165C808 171.7 801.2 177.5 794.9 183.8C793 185.8 791.3 186.7 792.3 189.4C793.2 191.8 798 194.8 799.9 196.5C805.1 201.1 810.4 205.5 816 209.6C824 215.5 828.2 221.3 832.4 230.3C836.2 238.4 841.7 246.6 850.3 248.9C853.4 249.7 856.6 249.7 859.8 249.7C867.2 249.6 872.1 250.7 879.5 248.1C885.3 246 887.8 236.9 889.5 231.8C894.6 216.6 896.1 200.6 898.5 184.9C901 168.2 903.7 151.5 906.5 134.9" fill="white"/>
<path d="M919.5 100.8L915.8 100.5C909.3 100.1 902.7 100.7 896.4 102.6C893.8 103.4 891.2 104.2 888.7 105.1C878.3 108.5 872.4 114.1 867.6 124.1C863.1 133.6 861.6 144.5 863.7 154.8C864.1 156.8 864.6 158.7 864.4 160.7C864.2 162.2 863.7 163.6 863.2 165C858.7 177.3 857.6 190.5 856.5 203.6C856.7 201.8 845.7 194.5 843.7 192.6C839.6 188.8 835.4 185 831.3 181.1C825.5 175.7 819.7 170.4 813.9 165C808 171.7 801.2 177.5 794.9 183.8C793 185.8 791.3 186.7 792.3 189.4C793.2 191.8 798 194.8 799.9 196.5C805.1 201.1 810.4 205.5 816 209.6C824 215.5 828.2 221.3 832.4 230.3C836.2 238.4 841.7 246.6 850.3 248.9C853.4 249.7 856.6 249.7 859.8 249.7C867.2 249.6 872.1 250.7 879.5 248.1C885.3 246 887.8 236.9 889.5 231.8C894.6 216.6 896.1 200.6 898.5 184.9C901 168.2 903.7 151.5 906.5 134.9" stroke="#212145" stroke-width="2.6" stroke-miterlimit="10"/>
<path d="M710.5 470C725.6 438.8 736.4 406.1 748 373.5C753.6 357.9 759.3 341.8 769.6 328.6C774.4 322.5 778.7 317.7 786.5 316C793.6 314.5 801 315.3 808 316.9C811.9 317.8 815.4 319.8 819.2 320.7C824.4 321.9 832.5 320.6 834.5 327.2C835.4 330.1 834.9 333.3 834.2 336.3C833 341.3 831.5 346.1 829.5 350.8C827 356.8 823.8 362.6 821.6 368.8C820 373.5 819 378.5 817.1 383.1C814.1 390.5 808.8 396.9 802.3 401.6C798.4 404.4 793.8 406.7 791.1 410.7C789.1 413.6 788.9 416.6 787.7 419.8C784.6 428.1 781 437 773.4 441.7C771.4 442.9 769.2 443.9 767.7 445.7C766.7 446.9 766.1 448.5 765.6 450C764 454.5 762.2 459.1 759.2 462.9C756.5 466.3 753 468.9 750.2 472.3C747.3 475.9 746.6 480 744.6 484C744.2 485.2 710.3 470.5 710.5 470Z" fill="#212145"/>
<path d="M885.7 156.3C885.5 168.9 885.3 181.5 885.1 194.1C884.7 219.9 891.7 245.3 893.7 271C911.4 277.7 932.3 278.5 950.7 279.5C965.8 280.3 980.9 280.4 995.9 281.1C997.4 249.9 999.9 218.8 1003.2 187.8C1004.2 178.5 1007.1 169.5 1008.7 160.3C1011.6 143.5 1003.5 124.6 990.3 113.9C979.2 104.9 964.2 103.1 950 101.7C945.5 101.2 924.2 100.6 919.8 100.2" fill="white"/>
<path d="M885.7 156.3C885.5 168.9 885.3 181.5 885.1 194.1C884.7 219.9 891.7 245.3 893.7 271C911.4 277.7 932.3 278.5 950.7 279.5C965.8 280.3 980.9 280.4 995.9 281.1C997.4 249.9 999.9 218.8 1003.2 187.8C1004.2 178.5 1007.1 169.5 1008.7 160.3C1011.6 143.5 1003.5 124.6 990.3 113.9C979.2 104.9 964.2 103.1 950 101.7C945.5 101.2 924.2 100.6 919.8 100.2" stroke="#212145" stroke-width="2.6" stroke-miterlimit="10"/>
<path d="M775.1 401.9C774.8 401.2 774.4 400.4 774.1 399.7C773.4 398.2 772.9 396.7 772.5 395.1C767.6 376.7 761.2 356.7 763.2 336.7C764.9 319.3 764.8 297.2 781.7 286.6C795.7 277.8 815.3 272.1 827.5 286.6C830.1 289.7 831.8 293.4 832.9 297.2C840.3 324.2 827.9 347.5 831.5 372.7C832.4 379.1 833.3 385.6 832 391.8C831.6 393.9 830.9 395.9 830.6 398C829.9 403.2 831.6 408.4 833 413.4C834.5 418.8 835.6 424.3 835.4 429.8C835.1 435.5 833.4 441.1 833.4 446.8C833.4 451 834.2 455.1 835 459.2C836.1 464.5 841.3 475.2 834.4 477.4C830.2 478.7 825.3 478.5 820.9 479.6C819.5 480 808.9 482.7 803.4 484.5C801.8 485 800.2 484 800 482.3C799 474.8 795.4 466.9 793.4 459.8C790.8 450.4 788.4 441 786.1 431.6C785 427.1 784 422.5 782.5 418.1C780.5 412.5 777.6 407.3 775.1 401.9Z" fill="#212145"/>
<path d="M902.1 64.5L907.4 32.3L928.2 37.1C941.4 40.2 949.6 53.3 946.5 66.5L944.7 74.4C944 77.6 942.5 80.4 940.7 82.8L944.9 102.3C947 111.5 941 120.6 931.7 122.3C922.4 124 913.6 117.6 912.4 108.2L909 85.9C903.2 80.7 900.3 72.6 902.1 64.5Z" fill="white" stroke="#212145" stroke-width="2.6" stroke-miterlimit="10"/>
<path d="M896.5 235C886.7 237.2 879.6 241.1 871 245.8C863.6 249.8 862.1 257.2 872 258.9C877.4 259.9 882.9 260.8 888.3 259.7C893.9 258.5 895.5 255.3 899.1 251.6C902.2 248.5 907.4 250 911.9 248.1C913.6 247.3 915.4 246.2 916 244.4C916.6 242.6 916 240.7 915.3 239C914.7 237.4 914 235.9 912.8 234.7C910.4 232.5 906.6 232.6 903.4 233.4C901.1 234 898.8 234.5 896.5 235Z" fill="white" stroke="#212145" stroke-width="2.6" stroke-miterlimit="10"/>
<path d="M906.3 37.6C909.7 40.3 913.9 42 918.2 42.7C922.2 43.4 926.3 43.4 930.1 44.6C940.4 47.9 939 59.3 938.1 68C937.8 71.1 940.5 81.4 944.8 79.7C947.6 79.7 948.1 75.5 948.7 73.7C950 70.2 951.4 66.8 952.7 63.4C953.6 61 954.6 58.5 954.4 56C954.1 52.3 951.4 49.1 950.7 45.5C950.1 42.7 950.6 39.7 950.2 36.9C949.6 33.1 947.1 29.6 943.8 27.5C939 24.3 933.2 25.6 928.4 22.9C925.7 21.4 923.8 19 921.3 17.1C917.6 14.4 912.8 13.3 908.3 14.1C904.5 14.8 900.7 17.2 899.3 20.8C898 24.2 899 28 900.7 31.2C902.2 33.7 904.1 35.8 906.3 37.6Z" fill="#212145"/>
<path d="M933.8 64.1C932.9 67.8 935.2 71.5 939 72.4C942.7 73.3 946.4 71 947.3 67.2C948.2 63.5 945.9 59.8 942.1 58.9C938.4 58.1 934.7 60.4 933.8 64.1Z" fill="white"/>
<path d="M1008.9 145.6C1010.6 159.6 1010.9 173.8 1011.7 187.9C1012.6 203.3 1011.9 218.9 1007.6 233.8C1006.2 238.5 1004.5 243.1 1001.3 246.8C989.8 260.2 961.5 254.7 945.9 254.7C933 254.7 920.2 254.7 907.3 254.7C907.1 254.1 906.9 253.5 906.8 252.9C905.8 247.6 902.4 235.1 901.4 229.8C909.6 229.1 917.7 228.5 925.9 227.8C932.9 227.2 940 226.6 947 226.1C952.7 225.6 961.3 227 962.3 219.4C962.6 216.8 962.3 214 963.3 211.5C964.9 207.9 969.2 205.9 970.2 202C971 199.1 969.7 195.6 969.5 192.7C969.2 188.4 967.2 184.4 965.5 180.4C962.6 173.6 960.4 166.4 959.1 159.1C959.5 159.1 959.9 159 960.3 159" fill="white"/>
<path d="M1008.9 145.6C1010.6 159.6 1010.9 173.8 1011.7 187.9C1012.6 203.3 1011.9 218.9 1007.6 233.8C1006.2 238.5 1004.5 243.1 1001.3 246.8C989.8 260.2 961.5 254.7 945.9 254.7C933 254.7 920.2 254.7 907.3 254.7C907.1 254.1 906.9 253.5 906.8 252.9C905.8 247.6 902.4 235.1 901.4 229.8C909.6 229.1 917.7 228.5 925.9 227.8C932.9 227.2 940 226.6 947 226.1C952.7 225.6 961.3 227 962.3 219.4C962.6 216.8 962.3 214 963.3 211.5C964.9 207.9 969.2 205.9 970.2 202C971 199.1 969.7 195.6 969.5 192.7C969.2 188.4 967.2 184.4 965.5 180.4C962.6 173.6 960.4 166.4 959.1 159.1C959.5 159.1 959.9 159 960.3 159" stroke="#212145" stroke-width="2.6" stroke-miterlimit="10"/>
<path d="M729 253.3H878.4C878.4 250.4 876.1 248.1 873.2 248.1H729V253.3Z" fill="#212145"/>
<path d="M703.3 248.1H852.6L826 169.2C825.1 166.5 822.4 164.6 819.3 164.6H684.7C680 164.6 676.6 168.8 678 173L703.3 248.1Z" fill="#212145"/>
<path d="M705.9 253.3H853.3V248.1L703.2 241.2V250.7C703.3 252.1 704.5 253.3 705.9 253.3Z" fill="#212145"/>
<path d="M762.3 200.1C762.4 200.1 762.5 200 762.6 200C762.7 200 762.8 200 762.8 200C764.5 200.1 766.2 200.8 767 202.3C769 205.7 766.2 208.1 763.3 208.2C757.9 208.5 757.5 201.4 762.3 200.1Z" fill="white"/>
<path d="M856.3 202.9C856.7 204 857.4 204.9 858.1 205.9C858.8 206.9 859.5 207.8 860 208.9C860.5 209.7 861.1 210.3 861.5 211.1" fill="white"/>
<path d="M856.3 202.9C856.7 204 857.4 204.9 858.1 205.9C858.8 206.9 859.5 207.8 860 208.9C860.5 209.7 861.1 210.3 861.5 211.1" stroke="#212145" stroke-width="2.6" stroke-miterlimit="10"/>
<path d="M925.7 85.3C921.2 91 915.1 95.3 911 101.3C910.5 97.5 910 93.6 909.5 89.8C909.2 87.7 908.5 85.8 908.1 83.9C914.2 85.3 919.3 86.9 925.7 85.3Z" fill="#212145"/>
<path d="M918.5 70.9C918.3 72.8 916.7 74.5 914.8 74.9C912.9 75.3 910.8 74.5 909.5 73.1C908.2 71.7 907.5 69.7 907.6 67.7C907.7 67.7 907.9 67.8 907.8 67.9" fill="#212145"/>
<path d="M939.6 63.2C940.7 63 942 63.4 942.8 64.2C943.6 65.1 943.7 66.4 943.2 67.4C942.6 68.4 941.4 69 940.2 68.7" fill="#212145"/>
<path d="M833.4 392.1C834 385.1 833.3 377.9 831.3 371.1C829.8 366 828.1 361.6 829.3 356.3C830.5 351.2 831.2 347.1 829.3 341.8" stroke="white" stroke-width="3.4279" stroke-miterlimit="10"/>
<path d="M767.4 292.8C755.5 323.3 765.7 357.3 774.1 388.9C779.6 409.5 784.2 430.3 788.1 451.2" stroke="white" stroke-width="3.4279" stroke-miterlimit="10"/>
<path d="M994.9 237.9C995.1 239.2 994.9 240.5 994.3 241.6C993.9 242.2 993.4 242.7 992.8 243.1C991.4 243.9 989.6 243.7 988 243.5" fill="#212145"/>
<path d="M918.2 173.2C918.1 173.1 917.9 173 917.8 172.9Z" fill="#212145"/>
<path d="M289.7 206.2C289.7 209.7 289.4 211.2 292.5 212.5C295.5 213.8 300.4 213.5 303.7 214.1C311 215.4 318.2 217.5 324.5 221.6C335.2 228.6 348.1 229.9 359.3 237.1C361.2 238.3 363 239.6 365.2 240.2C367.9 241 370.7 240.7 373.5 240.6C381.5 240.3 390.1 242.3 395.7 248C397.6 250 399.2 253 397.9 255.4C397.2 256.6 395.9 257.4 394.6 258C384.8 262.4 374.6 259.5 365.1 255.9C357.2 252.9 347.3 252.2 338.9 251.6C324.8 250.6 310.5 251.4 296.6 248.5C289.1 246.9 281.6 245 274.7 241.6C268.4 238.5 260.7 235.3 257.6 228.4C257 227.1 256.7 225.7 256.3 224.3C253.7 214 251.1 203.7 248.5 193.4C246.5 185.6 246.7 177.3 247 169.2C247.2 162.4 248.4 155.6 250.5 149.2C252.1 144.4 253.6 138.3 256.3 134C259.1 129.7 263.8 126.8 268.9 126.3C279.1 125.3 288.7 131.9 288.1 142.7C287.3 155.9 291.6 168.8 288.7 181.9C288.4 183.5 287.9 185 287.9 186.6C287.9 188.2 288.3 189.7 288.6 191.2C289.6 196.1 289.6 201.2 289.7 206.2Z" fill="white" stroke="#212145" stroke-width="2.6" stroke-miterlimit="10"/>
<path d="M323 441.5C318.9 447.6 316 453.4 317.1 461.6C318.7 473.6 328.5 481.5 331.1 493.2C331.3 494.2 331.5 495.4 331.2 496.5C330.7 498.7 328.5 500.4 326.4 500.9C315.1 503.9 305.2 487.2 298.8 480.8C290.7 472.7 282.7 464.6 274.6 456.5C272.4 454.4 272.7 450.4 275.2 447.9L302.2 420L306.2 415.9C312.8 409 322.6 408.3 328 414.2C332.7 419.3 332.3 428.1 327.6 435C325.9 437.3 324.4 439.4 323 441.5Z" fill="#212145"/>
<path d="M232.9 329.2H226.9V461.6H232.9V329.2Z" fill="#212145"/>
<path d="M177.4 489.3C177.4 469.8 212 461.6 229.3 461.5C249.9 461.5 281.2 469 281.2 489.3" stroke="#212145" stroke-width="6.8558" stroke-miterlimit="10"/>
<path d="M229.9 494.5V462.1" stroke="#212145" stroke-width="6.8558" stroke-miterlimit="10"/>
<path d="M289.7 494C289.7 498.7 285.9 502.5 281.2 502.5C276.5 502.5 272.7 498.7 272.7 494C272.7 489.3 276.5 485.5 281.2 485.5C285.9 485.5 289.7 489.3 289.7 494Z" fill="#212145"/>
<path d="M238.2 494C238.2 498.7 234.4 502.5 229.7 502.5C225 502.5 221.2 498.7 221.2 494C221.2 489.3 225 485.5 229.7 485.5C234.4 485.5 238.2 489.3 238.2 494Z" fill="#212145"/>
<path d="M186.8 494C186.8 498.7 183 502.5 178.3 502.5C173.6 502.5 169.8 498.7 169.8 494C169.8 489.3 173.6 485.5 178.3 485.5C183 485.5 186.8 489.3 186.8 494Z" fill="#212145"/>
<path d="M224.1 284.7V187.3C224.1 170.4 210.4 156.8 193.6 156.8H160C143.1 156.8 129.5 170.5 129.5 187.3V296.2C129.5 320.2 149.2 339.9 173.2 339.9H223.5H282.7C285.5 339.9 287.8 337.6 287.8 334.8C287.8 332 285.5 329.7 282.7 329.7H269C244.2 329.6 224.1 309.5 224.1 284.7Z" fill="white" stroke="#212145" stroke-width="2.6" stroke-miterlimit="10"/>
<path d="M332.1 472.5C333.4 479.7 335.3 486 341.8 491.1C351.3 498.6 363.9 497.5 373.8 504.1C374.7 504.7 375.6 505.4 376.2 506.4C377.3 508.4 377 511.1 375.8 512.9C369.7 522.9 351 517.8 342 517.7C330.6 517.5 319.2 517.2 307.7 517C304.7 517 302.2 513.9 302.2 510.3V471.5V465.8C302.1 456.3 308.7 448.9 316.7 449.4C323.6 449.8 329.5 456.4 330.9 464.7C331.3 467.4 331.7 470 332.1 472.5Z" fill="#212145"/>
<path d="M268.6 228.4C268.6 228.3 268.5 228.1 268.5 228L268.6 228.4Z" fill="#7A483A"/>
<path d="M245.7 119.3L246.1 121.4L245.7 119.3Z" fill="#7A483A"/>
<path d="M268.2 226.8C268.3 227.2 268.4 227.6 268.5 228L268.2 226.5C268.2 226.6 268.2 226.7 268.2 226.8Z" fill="#7A483A"/>
<path d="M291.1 143.5L287.5 113.6L291.1 143.5Z" fill="#7A483A"/>
<path d="M286.5 113.9C283.8 106 279.3 98.6 271.6 94.7C269.3 93.5 266.8 92.7 264.4 91.9C258.1 89.8 251.8 87.8 245.3 86.8C244.2 86.6 242.7 86.8 242.5 87.8C242.4 88.2 242.6 88.7 242.6 89.1C243 90.8 242.1 92.3 242.3 94C242.6 96.2 243.4 98.4 244 100.5C245.1 104.9 246.3 109.5 245.8 114.1C245.1 121 248.7 126.8 248.7 133.4C248.9 134.5 252.1 150 252.2 150L291.1 143.4C289.9 133.5 289.6 123.4 286.5 113.9Z" fill="#212145"/>
<path d="M383.5 306.6C383.9 302.8 383.5 298.6 382 293.9C379.2 285.2 370.8 279.4 362.1 276.9C353.4 274.4 344.1 274.6 335 274.3C316.8 273.6 298.5 267.9 280.5 268.7C275.8 268.9 271.2 270.2 266.5 270C254.1 269.5 243.9 259.1 231.6 258.3C227.6 258 223.5 258.8 219.6 260C213.3 261.9 207.1 265 202.7 270C194.2 279.9 195 294.9 199.8 307C201.8 311.9 204.3 316.6 208 320.4C213.1 325.7 219.9 328.8 226.9 331.1C234.9 333.7 241.5 333.5 249.8 333.5C268.3 333.3 286.7 333.2 305.2 333C318.8 332.9 332.3 334.6 345.9 333.5C362.6 332 381.5 323.5 383.5 306.6Z" fill="#212145"/>
<path d="M369.8 281.2C363.1 276.1 355.1 273.6 345.7 277C341 278.7 336.9 281.8 333.6 285.5C317 304.3 313.7 335.4 308.9 359C306 372.7 303.5 386.6 301.4 400.4C300.8 404.4 293.8 439.8 296.1 440.9C298.4 442 336.5 445.6 336.2 446.4C343.5 427.3 352.2 408.3 358.1 388.8C361.5 377.8 366.9 367.6 371.5 357C376.7 344.7 381.3 330.9 383.8 317.7C386.6 303 381.8 290.4 369.8 281.2Z" fill="#212145"/>
<path d="M267.6 308.9C268.1 309.5 268.5 310.1 268.9 310.7C280.6 329.2 249.3 333.7 238 333.8L198.3 333.9C175.3 333.9 157.5 322.4 156.8 299.7V231.1C173.2 231.1 189.5 231.2 205.9 231.2C215.7 231.2 226.6 229.9 236.3 231.3C243.2 232.3 242.4 230.7 245.2 237.6C248.8 246.2 246.9 259.9 248.5 269.2C250.5 281.1 254.3 293 262 302.3C263.8 304.6 265.8 306.6 267.6 308.9Z" fill="#0096D5"/>
<path d="M303.1 366.1C305.6 365.1 308.9 360.7 311.7 361.4C314.3 362 316.6 366.8 317.7 368.9C320.7 374.7 322.4 381.2 326.7 386.2C327.1 386.7 327.6 387.1 328.1 387.4C329.4 387.9 330.7 387 331.7 386.1C340 378.7 340.6 363.8 341.2 353.4C342.1 336.2 333.2 318.8 318.7 309.6C313.9 306.5 308.6 304.3 303.3 302C286.3 294.5 270 285.6 254.5 275.4C247.8 271 241.4 268 234 265.1C221.3 260.2 207.6 258.7 194.2 260.8C177.9 263.4 163.1 266.4 157.9 289.6C156.1 297.4 156.5 305.8 159.4 313.4C162.1 320.4 166.8 326.2 173.8 329.2C174.7 329.6 175.7 329.9 176.6 330.3C182.6 332.3 188.5 334.3 194.5 336.3C199.6 338 204.7 339.8 209.8 341.5C215.5 343.4 221.2 345.4 227 347.3C232.8 349.3 238.6 351.2 244.4 353.2C249.8 355 255.1 356.8 260.5 358.7C264.9 360.2 269.3 361.7 273.6 363.2C276.5 364.2 279.4 365.2 282.2 366.1C283.1 366.4 283.9 366.7 284.8 367C285 367.1 285.3 367.2 285.5 367.3C286.1 367.5 286.7 367.7 287.3 367.8C292.7 369 298.2 368 303.1 366.1Z" fill="#0096D5"/>
<path d="M265.7 102.2C264.6 99.5 263.2 97.1 261.1 95.2C250.7 85.5 234.2 85.9 221 85.5C212.4 85.2 203.7 85.3 195.1 86.7C186 88.2 179.1 91.7 171 95.7C166.4 98 161.8 100.3 158.1 103.8C149.6 111.9 147.9 124.7 147.6 136.5C147.3 148.2 157.6 268 156.9 268C172 267.3 187.1 267.2 202.1 266.4C209.8 266 217.5 265.6 225.2 264.9C229.4 264.5 233.6 265 237.8 264.5C242.5 264 242 262 245.2 260C246.8 259 248.2 259.8 249.3 258.4C250.2 257.3 249.7 252.9 249.8 251.4C250.1 246.4 250.3 241.4 250.8 236.4C251.4 230.8 252.8 225.4 253.3 219.6C254.4 205.4 254.9 191.1 257.9 177.1C260.6 164.6 265.3 152.6 267.8 140C269.5 131.4 270.2 122.3 268.4 113.7C268 110 267.2 105.9 265.7 102.2Z" fill="#212145"/>
<path d="M210.6 66.4C208.7 64 209.2 64.4 208.4 61.3L201 29.5L245.6 19.1L250.9 51.3C252.8 59.4 249.9 67.6 244 72.7L240.7 95C239.5 104.3 230.7 110.8 221.4 109.1C212.1 107.4 206.1 98.3 208.2 89.1L210.6 66.4Z" fill="white" stroke="#212145" stroke-width="2.6" stroke-miterlimit="10"/>
<path d="M241.5 78.3C236.2 78.1 230.6 75.7 229.1 70.3C229.2 70.6 230.2 70.9 230.5 71C233.1 72 236.1 71.9 238.8 71.7C240.6 71.5 242.5 71.3 244 70.3C244.1 70.2 244.3 70.1 244.5 70.1C244.7 70.1 244.8 70.3 244.9 70.4C245.4 71.2 245.1 72.5 244.6 73.2C244 73.8 243.5 74.2 243.3 75C243.1 75.8 243.1 76.7 243 77.6C242.9 77.9 242.2 78.1 241.5 78.3Z" fill="#212145"/>
<path d="M247.9 26C244.8 27 241.4 27.8 238.3 28.6C233.7 29.8 229.1 30.7 224.5 32.1C212.4 35.7 215.1 47.7 215.1 57.8C215.1 60.6 214.9 63.8 212.6 65.4C206.2 69.8 204.7 56.1 203.1 53C202.2 51.3 201 49.8 200.3 48.1C198.9 44.5 200.1 40.3 199.6 36.5C199.4 34.7 198.8 33 198.6 31.3C198 23.9 204.8 17.1 210.8 14.1C215.7 11.7 220.9 8.40001 223.9 3.80001C224.4 3.00001 224.8 2.20001 225.5 1.70001C226 1.30001 226.7 1.00001 227.3 0.700006C230.9 -0.499994 235.1 0.200006 238.2 2.50001C239.1 3.20001 240 4.10001 241.1 4.60001C242.8 5.30001 244.7 4.80001 246.6 4.70001C249.3 4.50001 252.1 5.20001 254.1 7.00001C256.1 8.80001 257 11.9 256 14.4C255.4 15.9 254.1 17 253.4 18.5C251.8 21.9 252.6 24.5 248.8 25.9C248.4 25.8 248.2 25.9 247.9 26Z" fill="#212145"/>
<path d="M219.8 53.1C220.4 55.6 218.8 58.2 216.3 58.8C213.8 59.4 211.2 57.8 210.6 55.3C210 52.8 211.6 50.2 214.1 49.6C216.7 49 219.2 50.5 219.8 53.1Z" fill="white"/>
<path d="M325.5 319.7C329.6 326.3 332.2 333.8 334.1 341.3C337.1 353.2 340 365.4 338.2 377.5C337.7 381 336.7 384.5 336.5 388.1C336.1 394.5 338.1 400.8 338.1 407.2C338.1 411.8 337 416.2 336.1 420.7C333.8 431.9 333.1 442.8 333.5 454.1C333.6 457.8 333.8 461.4 334 465.1C334.1 468 333.7 472.2 335.1 474.7C330.8 475.4 326.4 475.9 322.1 476.5C314 477.6 306 478.7 297.8 479.3C295.3 479.5 289.8 480.8 287.7 479.2C285.9 477.8 285.6 473.5 285.1 471.5C281.4 456.6 278.2 440.9 281.2 425.6C281.7 422.8 282.5 420.1 282.8 417.3C283.2 413.8 282.9 410.3 282.4 406.8C280.4 392.3 276.9 378.2 275 363.7C273 348.5 271.7 333.1 270.5 317.8C268.4 290.7 305.6 299.5 318.1 310.8C321.1 313.5 323.5 316.5 325.5 319.7Z" fill="#0096D5"/>
<path d="M199.5 117.1C204.3 121.7 211.8 125.2 217.4 128.9C222.3 124.5 228.1 121.3 234.3 119.4C237.8 118.4 241.4 117.8 244.8 116.5C260.3 110.8 272.2 99.2 288.2 94C296.2 91.4 305.1 89.5 310.6 83.1C317.3 75.3 318.6 63.6 323.6 54.7C325.6 51.2 328.6 48.2 332.7 52C335.8 54.9 334.7 60.7 334.1 64.3C333.1 69.9 331.9 75.5 330.8 81.1C329.1 89.2 328.2 92.1 320.8 96.1C313.5 100.1 306.2 105 300.5 111.1C296.8 115 293.8 119.6 290.2 123.6C277.7 137.9 259.5 146 245.7 159C239 165.3 231.9 173.8 221.8 171.1C218.5 170.2 180 160 181.2 157.8C185.9 149.5 189.3 141.7 192.7 132.9C194.8 127.6 197.6 122.5 199.5 117.1Z" fill="white" stroke="#212145" stroke-width="2.6" stroke-miterlimit="10"/>
<path d="M157.3 140.6C162.7 149.3 171.3 156 181.1 159Z" fill="black"/>
<path d="M157.3 140.6C162.7 149.3 171.3 156 181.1 159" stroke="white" stroke-width="3.4279" stroke-miterlimit="10"/>
<path d="M303.4 221.7H471.4C474.3 221.7 476.8 219.7 477.4 216.8L498.3 120.2C499.1 116.4 496.2 112.7 492.3 112.7H324.3C321.4 112.7 318.9 114.7 318.3 117.6L297.4 214.2C296.5 218.1 299.4 221.7 303.4 221.7Z" fill="#212145"/>
<path d="M395.1 249.2L391.8 209.4C391.5 205.6 394.5 202.4 398.2 202.4C401.6 202.4 404.3 205 404.6 208.3L408 249.2H432.2V253.3H370V249.2H395.1Z" fill="#212145"/>
<path d="M423.8 134.8C424.3 130.7 430.7 130.7 430.3 134.8C429.8 139.2 429.3 143.7 428.8 148.1C428.3 152.2 421.9 152.2 422.3 148.1C422.8 143.7 423.3 139.3 423.8 134.8Z" fill="white"/>
<path d="M410.9 134.8C411.4 130.7 417.8 130.7 417.4 134.8C416.9 139.2 416.4 143.7 415.9 148.1C415.4 152.2 409 152.2 409.4 148.1C409.8 143.7 410.4 139.3 410.9 134.8Z" fill="white"/>
<path d="M397.9 134.8C398.4 130.7 404.8 130.7 404.4 134.8C403.9 139.2 403.4 143.7 402.9 148.1C402.4 152.2 396 152.2 396.4 148.1C396.9 143.7 397.4 139.3 397.9 134.8Z" fill="white"/>
<path d="M385 134.8C385.5 130.7 391.9 130.7 391.5 134.8C391 139.2 390.5 143.7 390 148.1C389.5 152.2 383.1 152.2 383.5 148.1C384 143.7 384.5 139.3 385 134.8Z" fill="white"/>
<path d="M372 134.8C372.5 130.7 378.9 130.7 378.5 134.8C378 139.2 377.5 143.7 377 148.1C376.5 152.2 370.1 152.2 370.5 148.1C371 143.7 371.5 139.3 372 134.8Z" fill="white"/>
<path d="M263.8 222.6C263.4 225.6 263.3 229 265.6 231C266.9 232.1 268.6 232.5 270.3 232.9" fill="#212145"/>
<path d="M231 159.4C230.6 161.6 228.8 163.4 226.6 163.9C224.4 164.4 222.1 163.4 220.8 161.6" fill="#212145"/>
<path d="M61.0516 264.502L1106.85 264.502L1106.85 252.902L61.0516 252.902L61.0516 264.502Z" fill="#212145"/>
<path d="M71.9 527.5H79.9L144.9 255.2H137L71.9 527.5Z" fill="#212145"/>
<path d="M143.9 527.5H151.9L217 255.2H209L143.9 527.5Z" fill="#212145"/>
<path d="M1093.1 527.5H1085.2L1020.1 255.2H1028L1093.1 527.5Z" fill="#212145"/>
<path d="M1021.1 527.5H1013.1L948.1 255.2H956L1021.1 527.5Z" fill="#212145"/>
<path d="M468.2 368.3C471.7 351.7 501.6 353 515.1 350.7C533.4 347.5 551.7 344.5 570 341.2C574.1 340.5 578.7 339.9 582.5 342.2C584.6 343.5 586 345.5 587.4 347.5C592.8 355.3 597.5 363.9 598.9 373C600.3 382.1 598.1 391.8 591.4 397.5C585.4 402.7 576.7 404.1 568.4 405.2C563.4 405.8 558.6 407 553.6 407.8C550.7 408.3 547.9 407.9 545.5 409.6C538.3 414.4 540.3 426 542.2 433.4C544 440.5 546.3 447.8 544.5 454.6C544 456.4 543.2 458.2 542.9 460C542.5 462.3 543 464.8 543.4 467.2C545.6 479.9 550.1 493.5 545.2 505.5C544.6 506.9 543.9 508.3 543.6 509.8C543.4 511.1 543.5 512.4 543.7 513.7C544.7 522.3 545.7 530.9 546.6 539.5C546.6 539.5 517.2 540.9 514.9 540.9C511.5 541 504 542.2 501 540.4C496.2 537.5 495.2 523.3 494.4 518C493.2 510.6 492.7 503 491.3 495.6C488.7 482.3 483.2 469.7 480.8 456.3C479.6 449.6 480 442.6 478.7 436C477.6 430.5 476.2 424.9 475.2 419.3C472.9 405.7 470.7 392.1 468.4 378.6C467.9 375.5 467.4 372.4 467.8 369.4C468.1 368.9 468.2 368.6 468.2 368.3Z" fill="#212145"/>
<path d="M474 444.8C474.9 447 475.7 449.3 476.6 451.5C478.8 457.2 481 463 481.3 469.1C481.6 475.2 480 481.2 479.8 487.4C479.6 497.8 484.9 506.8 485 516.9C485 520.7 484 524.3 483.7 528.1C483.4 531.9 483.9 535.7 484.5 539.5C485.3 545.6 486.2 551.7 487 557.8C487.7 562.8 489.2 566.2 483.5 566.7C468.3 568.2 453.8 565.8 438.7 564.9C438.1 564.9 437.4 564.8 436.9 564.4C436.6 564.1 436.4 563.6 436.3 563.1C430.8 541.9 425.7 521.5 423 499.9C422.8 498 422.5 496 421.7 494.2C420.7 491.9 418.8 490.2 417.2 488.3C413.3 483.5 413.2 478.5 411.6 472.9C410 467.5 408.1 462.3 406.9 456.7C404 443.4 401.2 430.1 398.4 416.8C396.1 405.8 393.3 395.9 399.2 385.4C401.1 382 404.1 379.4 407.1 376.9C433.5 355.5 467 343 500.9 341.9C513.6 341.5 529.6 340.7 534.3 328.9C536.1 324.5 535.7 319.5 536.4 314.7C538.5 300.9 560 297.6 571.1 301.3C586.2 306.2 590.9 324.8 592.5 340.6C593.9 353.5 594.8 366.8 591.1 379.2C585.6 397.7 570.1 412.1 552.5 419.9C538.6 426 523.4 428.2 508.4 429.1C496.9 429.8 485.5 427.6 474.2 426.3C466.1 425.4 467.4 427.7 470 434.4C471.2 437.8 472.6 441.3 474 444.8Z" fill="#212145"/>
<path d="M575.2 101.8C574.8 103.8 574.4 105.8 574 107.8C573.3 111.8 572.9 116.3 575.6 119.4C577.2 121.1 579.5 122 581.1 123.7C583.4 126.2 583.6 130.1 583.1 133.5C582.5 137.6 582.4 141.2 582.2 145.1C582 149.4 580.1 153.3 580.3 157.7C580.6 166 586.7 171.5 594.7 170.9C599.4 170.6 604.8 169.9 607.6 166.1C609 164.2 609.5 161.9 610.1 159.6C614 142.6 617.9 124.8 613.5 107.9C611.9 101.7 609.8 94.3 606.1 88.9C603.4 85 600.4 80 596.7 77C593.2 74.3 588 73.3 584.5 76C582.1 77.8 581 80.7 580.1 83.5C578.1 89.6 576.4 95.6 575.2 101.8Z" fill="white" stroke="#212145" stroke-width="2.6" stroke-miterlimit="10"/>
<path d="M531.9 172.3C530.9 166.1 527.3 160.1 521.8 156.9C515.8 153.4 509.7 150 503.1 147.5C502.2 147.2 501.4 146.9 500.5 146.6C483.4 140.5 465.4 136.7 448.6 129.9C430 122.3 412.1 113.2 393.8 104.8C381.5 99.1 369.7 93.1 358.8 84.9C349.6 78 352.5 64.1 348.1 54.6C346.2 50.5 342.6 46.3 339.3 51.8C336.2 57 337.1 63.8 336.4 69.5C335.7 75.2 334.9 81 337.4 86.4C339.2 90.2 342.4 93.1 345.5 95.9C348.5 98.6 351.5 101.3 354.5 104C358 107.1 361.4 110.5 365.1 113.2C376.6 121.9 387.7 131.2 398.4 140.9C408.9 150.5 418.5 160.4 430.6 168.2C442.3 175.8 455.7 182.2 469 185.8C469.2 185.9 469.4 185.9 469.7 186C483.1 189.6 495.3 195.1 509.6 193.6C520.9 192.5 534.1 185.2 531.9 172.3Z" fill="white" stroke="#212145" stroke-width="2.6" stroke-miterlimit="10"/>
<path d="M540.1 310.2C540.1 310.6 576.7 312.5 580.1 312.7C586.7 313.1 595.2 315.1 601.7 314C605.9 313.3 607.6 308.9 612.5 309.8C615.5 310.4 618.9 311.4 621.1 309.3C622.5 308 622.7 305.8 622.8 303.9C623.6 290.1 624.3 276.3 625.1 262.5C625.7 251.1 639.8 248 648 242.8C653.6 239.3 659.2 235.7 664.7 232.2C654.2 209.6 639.7 190 622.5 172.2C604.5 153.5 591.7 151.8 565.4 151.5C544.1 151.3 522.9 148.5 502.3 143.1C497.4 160.5 492.2 178.2 487.4 195.5C499.5 202.1 514.1 206.8 527.3 211.1C531.2 212.6 535.4 214.3 537.5 217.9C539.2 220.7 539.2 224.1 539.3 227.4C539.6 255.1 539.9 282.7 540.1 310.2Z" fill="#212145"/>
<path d="M130.2 552.3C130.2 551.7 130.1 551.1 130 550.4C128.9 543.7 123.6 538.5 120 532.8C116.5 527.2 114.4 520.6 114.2 514C113.7 501.6 114 485.6 108.7 474.1C103.9 463.7 92.4 458.1 86.5 448.3C83.3 442.9 82.2 436.5 80.8 430.4C78.5 420.7 74.8 411 68.3 403.4C63.2 397.5 56.7 393.1 50.2 388.8C43.9 384.6 37.5 380.3 30.4 377.8C21 374.5 10.6 373.4 6.29999 383.1C2.79999 390.9 4.59999 402 8.29999 409.3C11.5 415.7 16.6 420.9 21.4 426.2C29.7 435.4 37.3 445.3 44.2 455.6C46.1 458.5 48 461.6 48.4 465C48.8 468.3 47.8 471.7 47.4 475C45.3 491.9 52.2 505.6 65.3 515.9C75.6 524 82.1 528.6 84.7 542.7C86.3 551.4 87 560.7 91.9 568.1C93.9 571.1 96.5 573.7 98.8 576.5C107.5 586.7 112.9 599.7 114.1 613.1C114.7 619.8 116.1 634.9 126.9 631.8C140.1 628.1 138.5 589.7 134.6 580.6C133 576.7 130.5 573.2 129.7 569C128.4 563.5 130.6 557.8 130.2 552.3Z" fill="#212145"/>
<path d="M183.8 574.6C186.6 572.6 189.1 570.3 190.6 567.2C194.6 558.8 188.4 553 187.9 545.1C187.5 537.9 193.7 533.4 197.6 528.4C202.5 522.1 203.7 513.1 200.4 505.8C199 502.6 196.7 499.4 197.2 495.9C197.6 493.4 199.3 491.3 200.7 489.1C204.5 482.8 204.7 474.5 201.2 468.1C199.2 464.5 196.2 461.3 195.3 457.2C194.7 454.5 195.2 451.7 195.8 448.9C197.4 440.1 199 431.1 198.4 422.1C198.1 418.2 197.4 414.1 195.2 410.9C193.2 408 189.7 405.7 186 406.6C182.2 407.6 181.7 410.7 180.3 413.7C176.4 422.6 175.4 430.6 173.6 440.2C173.3 441.9 172.9 443.6 171.9 445C170.8 446.5 169.2 447.5 167.6 448.5C157.5 455.1 149.2 465.9 149.3 477.9C149.3 485 152.2 491.8 152.3 498.8C152.3 500.6 152.1 502.5 151 504C150 505.3 148.4 506 146.9 506.8C142.5 509 138.3 512.2 136.3 516.7C133.9 521.7 134.5 527.7 136.2 533C137.9 538.3 140.6 543.3 142.3 548.6C142.7 549.9 143.1 551.3 143 552.7C142.7 556 140 557.6 138.2 560C136.3 562.6 136.1 564.3 135.1 567.2C132.5 575 129.7 581.3 131 589.8C131.5 593.2 132.5 596.4 132.9 599.8C133.6 606.6 131.8 613.3 130.8 620C130.1 624.5 128.4 634.9 133 638C136.9 640.7 142.5 636.3 145.8 634.4C156.2 628.4 163.5 623.5 165.2 611.1C166.4 602.2 165.2 592 171.1 584.6C174.4 580.3 179.5 577.7 183.8 574.6Z" fill="#0096D5"/>
<path d="M115.3 580C112.8 573.4 109.3 567.1 105.1 561.4C102 557.3 98.5 553.4 95.7 549.1C91.3 542.1 89 533.9 84.7 526.9C78.2 516 65.1 509.8 53.1 516C48.9 518.2 45.3 521.4 41.8 524.6C37.9 528.2 34 531.8 30.8 536C24.3 544.4 20.6 554.6 16.9 564.6C12.6 576.4 8.29999 588.2 3.99999 600C1.99999 605.6 -2.80001 618.4 1.89999 624C6.39999 629.4 16.4 621.6 18.5 617.2C19.9 614.3 21.9 611.7 24.5 609.7C27.7 607.2 31.9 605.5 33.9 601.9C36 598.2 35.6 592.7 39.4 590.7C40.5 590.1 41.8 590 42.9 589.6C46.2 588.5 48.2 585.3 50 582.4C54 575.6 57.1 568 61.4 561.5C64.1 562.3 66.6 570.6 68.4 573.2C71.1 577 74.5 580.4 78.4 583.1C84.3 587.2 91.5 590 95.4 596C97.6 599.3 98.4 603.3 99.6 607.1C101.2 612.6 106.4 628.3 114.8 625.6C120.6 623.8 120.3 614 120.4 609.4C120.7 599.5 118.9 589.4 115.3 580Z" fill="#0096D5"/>
<path d="M71 613.3H193.3V628.6H183.5L175.5 673.8C171.8 694.8 153.5 710.2 132.1 710.2C110.7 710.2 92.4 694.9 88.7 673.8L80.7 628.6H71V613.3Z" fill="#212145"/>
<path d="M186.9 629.8H77.3" stroke="white" stroke-width="3.4279" stroke-miterlimit="10"/>
<path d="M577.7 344C567.8 345.2 558 346.4 548.1 347.6C530.4 349.7 511.2 352.6 498.9 365.6C491.3 373.7 487.5 384.8 486.3 395.9C485.1 407 486.4 418.2 487.6 429.2" stroke="white" stroke-width="6.8558" stroke-miterlimit="10"/>
<path d="M597.975 557.092L603.975 557.092L603.975 424.692L597.975 424.692L597.975 557.092Z" fill="#212145"/>
<path d="M653.5 584.9C653.5 565.4 618.9 557.2 601.6 557.1C581 557.1 549.7 564.6 549.7 584.9" stroke="#212145" stroke-width="6.8558" stroke-miterlimit="10"/>
<path d="M601 590.1V557.7" stroke="#212145" stroke-width="6.8558" stroke-miterlimit="10"/>
<path d="M541.2 589.6C541.2 594.3 545 598.1 549.7 598.1C554.4 598.1 558.2 594.3 558.2 589.6C558.2 584.9 554.4 581.1 549.7 581.1C545 581.1 541.2 584.9 541.2 589.6Z" fill="#212145"/>
<path d="M592.7 589.6C592.7 594.3 596.5 598.1 601.2 598.1C605.9 598.1 609.7 594.3 609.7 589.6C609.7 584.9 605.9 581.1 601.2 581.1C596.5 581.1 592.7 584.9 592.7 589.6Z" fill="#212145"/>
<path d="M644.1 589.6C644.1 594.3 647.9 598.1 652.6 598.1C657.3 598.1 661.1 594.3 661.1 589.6C661.1 584.9 657.3 581.1 652.6 581.1C647.9 581.1 644.1 584.9 644.1 589.6Z" fill="#212145"/>
<path d="M560.3 374.9V261.2C560.3 241.5 578.3 225.6 600.6 225.6H645C667.2 225.6 685.3 241.5 685.3 261.2V388.3C685.3 416.4 659.3 439.3 627.6 439.3H561H482.8C479.1 439.3 476 436.6 476 433.3C476 430 479 427.3 482.8 427.3H501C533.7 427.3 560.3 403.9 560.3 374.9Z" fill="white" stroke="#212145" stroke-width="2.6" stroke-miterlimit="10"/>
<path d="M637.1 69.9C643.1 70.2 649.2 70.5 654.7 72.5C665.7 76.4 670.7 84.6 676.3 93.8C681.9 103 691.4 108.6 698.5 116.6C711.6 131.3 713.3 155 702.5 171.5C698.9 176.9 694.2 181.5 689 185.5C660.2 207.3 613.1 191.7 596.4 161.1C587.5 144.9 590.9 125.1 594.5 107C596.5 97.1 595.3 89.2 585 84.1C582.3 82.8 579.4 82 576.9 80.3C570.9 76.3 568.7 67.7 571.5 61C574.2 54.3 581.1 49.8 588.3 49C591.4 48.7 594.6 49 597.5 50.2C604.3 53.1 608.2 60.4 614.3 64.6C620.9 69.1 629 69.5 637.1 69.9Z" fill="white" stroke="#212145" stroke-width="2.6" stroke-miterlimit="10"/>
<path d="M447.1 163.4C447.4 163.6 447.3 164.1 447.1 164.4C445.9 166.4 443.4 167.4 441 167.2C438.7 167 436.5 165.8 434.7 164.3" fill="#212145"/>
<path d="M214.8 52.1C214 52 213.2 52.4 212.8 53C212.4 53.7 212.4 54.6 212.9 55.2C213.3 55.7 213.9 56 214.5 56.2C214.6 56.2 214.7 56.2 214.6 56.2" fill="#212145"/>
<path d="M247.3 57.1C247.5 57.7 247.2 58.3 246.8 58.9C246.2 59.8 245.4 60.5 244.4 61C243.2 61.5 241.9 61.5 240.7 61C239.5 60.5 238.6 59.5 238 58.4C238.1 58.4 238.1 58.4 238.2 58.4" fill="#212145"/>
<path d="M1018.7 585.4C1018.3 580.1 1017.9 575.7 1017.9 573.1C1017.8 568.3 1017.8 563.5 1018.6 558.7C1019.7 552.1 1022.4 545.9 1024.7 539.6C1029.9 525.7 1033.4 510.5 1030.2 496C1028.1 486.2 1023 477.3 1020.9 467.5C1019.4 460.4 1019.6 453.1 1018.3 446C1017.2 440.2 1009.8 421 1000.8 428.1C999.3 429.3 998.5 431.2 997.8 433C995.3 439.7 993.8 446.9 990.3 453.2C986.6 459.9 980.9 465.5 978 472.6C975.2 479.5 975.4 487.2 976.3 494.5C979.2 520.1 987.8 544.7 984.2 571C983.6 575.5 982.3 611.9 988.8 611.9C991 617.8 994.6 627 1001.6 628.5C1020.6 632.7 1020 603.8 1018.7 585.4Z" fill="#212145"/>
<path d="M1084.3 630C1091.7 637 1097.3 645.8 1108.4 647.6C1122.3 649.9 1129.4 636.7 1124.4 624.5C1121.1 616.5 1114.3 610.5 1108.4 604.1C1101.8 597 1096.1 589 1091.5 580.5C1088.1 574.1 1085 567.2 1079.2 562.9C1075.4 560.1 1070.7 558.8 1066.2 557.5C1057.2 554.9 1047.6 552.4 1038.7 555.4C1033.2 557.3 1028.5 561.1 1024.4 565.2C1000.2 589.4 1002 620.8 1007.6 652C1008.1 654.8 1008.9 658.1 1011.4 659.4C1015.5 661.6 1020.1 657.1 1021.6 652.7C1025.1 642 1023 632.6 1030 623.1C1035.7 615.4 1046 609.3 1049.1 600.2C1050 597.4 1050.5 594.3 1052.3 592.1C1054.2 589.8 1058.3 589.1 1059.8 591.6C1060.6 592.9 1060.4 594.6 1060.3 596.1C1059.6 605.9 1064.2 615.9 1072.2 621.7C1075.5 624.1 1079.2 625.7 1082.3 628.3C1083 628.8 1083.7 629.4 1084.3 630Z" fill="#212145"/>
<path d="M1004.5 598C1004.5 596.6 1004.5 595.2 1004.4 593.8C1002.8 579 982.2 576.9 972 570.3C962.3 564 956.3 550.8 943.8 563.8C937.8 570 933.7 581.3 932.5 589.7C930.1 605.9 927.9 622.2 925.7 638.4C925.2 642 924.8 645.9 926.4 649.2C929.5 655.2 938.6 655.7 944.1 651.7C951.7 647 954.5 634.3 957.5 626.6C958.9 623 960.3 619.2 960 615.4C959.7 610.6 956.8 606.1 957.6 601.4C957.8 599.9 958.9 598.2 960.3 598.4C960.8 598.5 961.2 598.7 961.6 599C968.3 603.4 970.6 610.2 974.7 616.5C979.1 623.2 982.5 622.4 987.5 627C998 636.6 994.8 658.1 998.6 671C999.6 674.3 1002.8 678.2 1005.6 676.3C1006.7 675.5 1007.2 674.1 1007.5 672.7C1011 658.4 1010.9 643.2 1007.4 628.9C1005.9 622.9 1003.8 616.9 1003.6 610.6C1003.5 606.4 1004.3 602.2 1004.5 598Z" fill="white"/>
<path d="M958.7 644.7H1059V657.2H1051L1044.5 694.2C1041.5 711.5 1026.5 724 1008.9 724C991.4 724 976.4 711.4 973.3 694.2L966.8 657.2H958.8V644.7H958.7Z" fill="#212145"/>
<path d="M1053.7 658.3H963.9" stroke="white" stroke-width="3.4279" stroke-miterlimit="10"/>
</g>
</svg>
